<?xml version="1.0" encoding="UTF-8"?>
<svg id="Layer_1" xmlns="http://www.w3.org/2000/svg" version="1.1" viewBox="0 0 200 200">
  <!-- Generator: Adobe Illustrator 29.6.1, SVG Export Plug-In . SVG Version: 2.1.1 Build 9)  -->
  <defs>
    <style>
      .st0 {
        fill: #ffc39b;
      }

      .st1 {
        fill: #efa478;
      }

      .st2 {
        fill: #fff;
      }

      .st3 {
        fill: #ba7a52;
      }

      .st4 {
        fill: #004a80;
      }

      .st5 {
        fill: #0092ff;
      }
    </style>
  </defs>
  <polygon class="st5" points="150.02 175.45 49.98 175.45 86.56 107.45 113.44 107.45 150.02 175.45"/>
  <g>
    <ellipse class="st0" cx="100" cy="83" rx="67.26" ry="58.45"/>
    <circle class="st0" cx="36.79" cy="80.17" r="16.34"/>
    <circle class="st0" cx="163.21" cy="80.17" r="16.34"/>
    <g>
      <g>
        <ellipse class="st2" cx="133.18" cy="75.81" rx="18.69" ry="18.55"/>
        <ellipse class="st4" cx="135.27" cy="74.97" rx="12.77" ry="13.21"/>
        <ellipse class="st2" cx="66.82" cy="75.81" rx="18.69" ry="18.55"/>
        <ellipse class="st4" cx="68.9" cy="74.97" rx="12.77" ry="13.21"/>
      </g>
      <path class="st1" d="M99.75,90.3c-.48,0-.95-.25-1.21-.7-.38-.67-.15-1.51.52-1.89l3.26-1.86-3.55-5.43c-.42-.64-.24-1.5.4-1.92.64-.42,1.5-.24,1.92.4l4.36,6.67c.21.32.28.71.19,1.09-.09.37-.33.69-.66.88l-4.55,2.59c-.22.12-.45.18-.69.18Z"/>
      <path class="st3" d="M100.07,104.18c-4.93,0-9.58-3.14-11.5-7.9-.29-.71.05-1.52.77-1.81.71-.29,1.52.05,1.81.77,1.59,3.94,5.57,6.46,9.62,6.13,3.55-.28,6.72-2.68,8.09-6.12.28-.71,1.09-1.06,1.8-.78.71.28,1.06,1.09.78,1.8-1.75,4.42-5.86,7.5-10.45,7.87-.31.02-.61.04-.92.04Z"/>
    </g>
    <path class="st1" d="M35.34,76.21l-1.92,1.92c-.38.38-.99.38-1.36,0l-1.92-1.92c-.38-.38-.99-.38-1.36,0h0c-.38.38-.38.99,0,1.36l1.92,1.92c.38.38.38.99,0,1.36l-1.92,1.92c-.38.38-.38.99,0,1.36h0c.38.38.99.38,1.36,0l1.92-1.92c.38-.38.99-.38,1.36,0l1.92,1.92c.38.38.99.38,1.36,0h0c.38-.38.38-.99,0-1.36l-1.92-1.92c-.38-.38-.38-.99,0-1.36l1.92-1.92c.38-.38.38-.99,0-1.36h0c-.38-.38-.99-.38-1.36,0Z"/>
    <path class="st1" d="M170.75,76.21l-1.92,1.92c-.38.38-.99.38-1.36,0l-1.92-1.92c-.38-.38-.99-.38-1.36,0h0c-.38.38-.38.99,0,1.36l1.92,1.92c.38.38.38.99,0,1.36l-1.92,1.92c-.38.38-.38.99,0,1.36h0c.38.38.99.38,1.36,0l1.92-1.92c.38-.38.99-.38,1.36,0l1.92,1.92c.38.38.99.38,1.36,0h0c.38-.38.38-.99,0-1.36l-1.92-1.92c-.38-.38-.38-.99,0-1.36l1.92-1.92c.38-.38.38-.99,0-1.36h0c-.38-.38-.99-.38-1.36,0Z"/>
  </g>
</svg>