<?xml version="1.0" encoding="UTF-8"?>
<svg id="Layer_1" xmlns="http://www.w3.org/2000/svg" xmlns:xlink="http://www.w3.org/1999/xlink" version="1.1" viewBox="0 0 600 600">
  <!-- Generator: Adobe Illustrator 29.6.1, SVG Export Plug-In . SVG Version: 2.1.1 Build 9)  -->
  <defs>
    <style>
      .st0 {
        fill: url(#linear-gradient1);
      }

      .st1 {
        fill: #ffc39b;
      }

      .st2 {
        fill: url(#linear-gradient);
      }

      .st3 {
        fill: #efa478;
      }

      .st4 {
        fill: #fff;
      }

      .st5 {
        fill: #ba7a52;
      }

      .st6 {
        fill: #11c14c;
      }
    </style>
    <linearGradient id="linear-gradient" x1="245.65" y1="292.9" x2="354.35" y2="401.59" gradientUnits="userSpaceOnUse">
      <stop offset="0" stop-color="#f97316"/>
      <stop offset=".19" stop-color="#dc2626"/>
      <stop offset=".41" stop-color="#e539b5"/>
      <stop offset=".69" stop-color="#3091f9"/>
      <stop offset="1" stop-color="#11c14c"/>
    </linearGradient>
    <linearGradient id="linear-gradient1" x1="45.57" y1="440.18" x2="331.02" y2="440.18" xlink:href="#linear-gradient"/>
  </defs>
  <g>
    <polygon class="st2" points="382.72 373.22 217.28 373.22 277.78 260.77 322.22 260.77 382.72 373.22"/>
    <g>
      <ellipse class="st1" cx="300" cy="220.34" rx="111.23" ry="96.65"/>
      <circle class="st1" cx="195.49" cy="215.66" r="27.03"/>
      <circle class="st1" cx="404.51" cy="215.66" r="27.03"/>
      <g>
        <g>
          <ellipse class="st4" cx="354.87" cy="208.46" rx="30.91" ry="30.68"/>
          <ellipse cx="358.31" cy="207.07" rx="21.12" ry="21.84"/>
          <ellipse class="st4" cx="245.13" cy="208.46" rx="30.91" ry="30.68"/>
          <ellipse cx="248.58" cy="207.07" rx="21.12" ry="21.84"/>
        </g>
        <path class="st3" d="M299.59,232.42c-.8,0-1.57-.42-2-1.16-.63-1.1-.24-2.5.86-3.13l5.4-3.08-5.88-8.99c-.69-1.06-.4-2.49.67-3.18,1.06-.7,2.49-.4,3.18.67l7.21,11.03c.35.53.46,1.18.31,1.8-.15.62-.55,1.14-1.1,1.46l-7.52,4.28c-.36.21-.75.3-1.14.3Z"/>
        <path class="st5" d="M300.11,255.37c-8.16,0-15.84-5.2-19.02-13.06-.48-1.18.09-2.52,1.27-2.99,1.18-.47,2.52.09,2.99,1.27,2.63,6.51,9.2,10.69,15.91,10.14,5.87-.46,11.12-4.44,13.38-10.13.47-1.18,1.8-1.76,2.98-1.29,1.18.47,1.76,1.8,1.29,2.98-2.9,7.3-9.68,12.41-17.28,13.01-.51.04-1.01.06-1.52.06Z"/>
      </g>
      <path class="st3" d="M193.07,209.11l-3.17,3.17c-.62.62-1.63.62-2.25,0l-3.17-3.17c-.62-.62-1.63-.62-2.25,0h0c-.62.62-.62,1.63,0,2.25l3.17,3.17c.62.62.62,1.63,0,2.25l-3.17,3.17c-.62.62-.62,1.63,0,2.25h0c.62.62,1.63.62,2.25,0l3.17-3.17c.62-.62,1.63-.62,2.25,0l3.17,3.17c.62.62,1.63.62,2.25,0h0c.62-.62.62-1.63,0-2.25l-3.17-3.17c-.62-.62-.62-1.63,0-2.25l3.17-3.17c.62-.62.62-1.63,0-2.25h0c-.62-.62-1.63-.62-2.25,0Z"/>
      <path class="st3" d="M416.98,209.11l-3.17,3.17c-.62.62-1.63.62-2.25,0l-3.17-3.17c-.62-.62-1.63-.62-2.25,0h0c-.62.62-.62,1.63,0,2.25l3.17,3.17c.62.62.62,1.63,0,2.25l-3.17,3.17c-.62.62-.62,1.63,0,2.25h0c.62.62,1.63.62,2.25,0l3.17-3.17c.62-.62,1.63-.62,2.25,0l3.17,3.17c.62.62,1.63.62,2.25,0h0c.62-.62.62-1.63,0-2.25l-3.17-3.17c-.62-.62-.62-1.63,0-2.25l3.17-3.17c.62-.62.62-1.63,0-2.25h0c-.62-.62-1.63-.62-2.25,0Z"/>
    </g>
  </g>
  <g>
    <g>
      <path class="st0" d="M45.57,440.18c0-15.53,11.88-26.53,28.06-26.53,9.4,0,16.98,3.43,21.94,9.62l-9.18,8.31c-3.21-3.86-7.14-5.98-12.03-5.98-8.38,0-14.21,5.83-14.21,14.58s5.83,14.58,14.21,14.58c4.88,0,8.82-2.11,12.03-5.98l9.18,8.31c-4.96,6.2-12.54,9.62-21.94,9.62-16.18,0-28.06-11.01-28.06-26.53ZM127.79,425.53v12.46c-1.24-.15-2.11-.22-3.13-.22-5.61,0-9.48,2.84-9.48,9.77v18.15h-13.85v-39.51h13.19v4.74c2.84-3.57,7.43-5.39,13.27-5.39ZM173.28,449.44h-28.72c1.17,4.01,4.59,6.34,9.69,6.34,3.86,0,6.41-1.09,9.11-3.43l7.29,7.58c-3.79,4.23-9.33,6.41-16.84,6.41-14.07,0-23.18-8.67-23.18-20.48s9.26-20.34,21.72-20.34c11.66,0,21.14,7.43,21.14,20.48,0,1.02-.15,2.33-.22,3.43ZM144.34,442.15h16.18c-.73-4.15-3.79-6.78-8.09-6.78s-7.29,2.62-8.09,6.78ZM215.85,443.75v21.94h-12.9v-5.1c-1.97,3.79-5.9,5.76-11.66,5.76-9.48,0-14.72-5.32-14.72-12.17,0-7.29,5.32-11.81,17.57-11.81h7.87c-.22-4.01-2.92-6.27-8.38-6.27-3.79,0-8.02,1.31-10.72,3.43l-4.66-9.4c4.52-2.99,11.23-4.59,17.42-4.59,12.83,0,20.19,5.69,20.19,18.22ZM202,453.01v-3.43h-5.98c-4.45,0-6.05,1.6-6.05,4.01s1.89,4.01,5.18,4.01c3.06,0,5.76-1.46,6.85-4.59ZM251.86,464.09c-2.41,1.53-5.98,2.26-9.62,2.26-10.13,0-16.04-4.96-16.04-15.09v-13.27h-5.76v-10.35h5.76v-10.28h13.85v10.28h9.04v10.35h-9.04v13.12c0,2.92,1.68,4.52,4.15,4.52,1.53,0,3.06-.44,4.23-1.24l3.43,9.69ZM253.54,445.87c0-11.88,9.4-20.34,22.3-20.34s22.3,8.46,22.3,20.34-9.26,20.48-22.3,20.48-22.3-8.53-22.3-20.48ZM284.15,445.87c0-5.98-3.57-9.33-8.31-9.33s-8.31,3.35-8.31,9.33,3.64,9.48,8.31,9.48,8.31-3.43,8.31-9.48ZM331.02,425.53v12.46c-1.24-.15-2.11-.22-3.13-.22-5.61,0-9.48,2.84-9.48,9.77v18.15h-13.85v-39.51h13.19v4.74c2.84-3.57,7.43-5.39,13.27-5.39Z"/>
      <g>
        <path class="st4" d="M391.83,485.37c-.31,0-.62-.04-.93-.13-1.76-.51-2.77-2.36-2.26-4.12,5-17.21,8.45-30.69,10.25-40.07,1.24-6.45,1.51-10.04,1.49-12-1.02,1.03-2.57,2.82-4.84,5.93-3.21,4.4-6.97,10.21-10.6,15.83-4.39,6.78-8.92,13.78-12.82,18.86-3.28,4.28-7.03,8.69-10.85,8.69-.65,0-1.3-.13-1.95-.4-5.45-2.31-3.87-11.42-.38-28.66,1.12-5.54,2.86-14.1,2.97-18.35-1.46,1.39-3.96,4.23-7.95,10.01-6.11,8.83-14.38,22.55-24.58,40.77-.9,1.6-2.92,2.17-4.52,1.28-1.6-.9-2.17-2.92-1.28-4.52,11.53-20.61,20.64-35.54,27.08-44.37,5.81-7.97,10.26-12.54,14.52-10.69,5.09,2.21,3.68,10.39.27,27.2-1.01,4.98-2.05,10.12-2.62,14.3-.39,2.86-.46,4.67-.43,5.8,1.09-.99,2.88-2.93,5.67-6.72,3.46-4.7,7.44-10.85,11.28-16.8,4.17-6.44,8.48-13.1,12.1-17.86,4.46-5.87,8.22-9.46,12.03-7.9,4.72,1.94,3.77,10.09,2.51,17.59-1.63,9.69-5.33,24.48-10.99,43.95-.42,1.45-1.75,2.4-3.19,2.4Z"/>
        <path class="st4" d="M443.84,485.37c-.11,0-.22,0-.34-.02-1.83-.18-3.16-1.81-2.97-3.64l3.43-34.06c-7.62,9.26-13.81,16.03-18.44,20.2-4.2,3.77-9.02,7.32-12.94,5.03-3.02-1.77-4.13-6.25-3.38-13.72.99-9.91,5.96-26.79,15.05-29.9,8.3-2.84,15.79,1.19,20.35,7.02.39-.49.78-.99,1.18-1.49.91-1.16,2.48-1.57,3.85-1.02,1.37.55,2.21,1.94,2.06,3.41l-4.55,45.19c-.17,1.71-1.62,2.99-3.3,2.99ZM429.77,434.98c-1.06,0-2.18.18-3.37.58-2.7.92-5.88,5.91-8.1,12.71-2.84,8.69-3.03,16.01-2.35,18.46,1.99-.88,8.05-5.11,24.31-25.06-1.26-1.91-4.98-6.7-10.5-6.7Z"/>
        <path class="st4" d="M496.82,445.78h-16.33l4.01-25.63c.28-1.81-.96-3.51-2.77-3.79-1.81-.29-3.51.96-3.79,2.77l-4.17,26.66h-14.66c-.97,0-1.76,1.09-1.76,2.43s.79,2.43,1.76,2.43h13.9l-4.83,30.89c-.28,1.81.96,3.51,2.77,3.79.17.03.35.04.52.04,1.61,0,3.02-1.17,3.28-2.81l4.99-31.91h17.09c.97,0,1.76-1.09,1.76-2.43s-.79-2.43-1.76-2.43Z"/>
        <path class="st4" d="M527.06,485.37c-1.77,0-3.54-.19-5.28-.58-10.34-2.31-18.53-11.38-19.91-22.06-.8-6.21.73-12.9,4.22-18.37,3.78-5.92,9.32-9.7,15.6-10.63,6.44-.96,14.04,1.13,18.92,5.19,2.78,2.31,4.3,4.99,4.39,7.74.14,3.92-2.54,7.52-8.17,11-5.62,3.47-14.25,6.93-26.34,10.57,2.61,4.99,7.34,8.89,12.74,10.09,10.32,2.3,21.39-5.12,24.69-16.53.51-1.76,2.35-2.78,4.11-2.27,1.76.51,2.78,2.35,2.27,4.11-2.1,7.26-6.65,13.43-12.83,17.39-4.5,2.88-9.48,4.37-14.41,4.37ZM524.91,440.14c-.75,0-1.51.05-2.25.16-4.35.65-8.25,3.36-10.97,7.63-2.66,4.17-3.84,9.25-3.23,13.94,0,0,0,0,0,0,29.25-8.79,29.92-14.38,29.9-15-.02-.59-.56-1.66-2.01-2.86-2.49-2.08-6.98-3.88-11.44-3.88Z"/>
      </g>
    </g>
    <g>
      <path class="st6" d="M134.72,516.61c0-1.34,1.06-2.33,2.33-2.33s2.33,1,2.33,2.33-1.09,2.4-2.33,2.4-2.33-1.03-2.33-2.4Z"/>
      <path class="st6" d="M463.06,516.61c0-1.34,1.06-2.33,2.33-2.33s2.33,1,2.33,2.33-1.09,2.4-2.33,2.4-2.33-1.03-2.33-2.4Z"/>
    </g>
    <g>
      <path class="st4" d="M156.24,518.83v6.17h-2.52v-6.22l-7.08-11.62h2.73l5.71,9.4,5.73-9.4h2.52l-7.08,11.67Z"/>
      <path class="st4" d="M163.68,516.07c0-5.22,4.03-9.12,9.5-9.12s9.45,3.87,9.45,9.12-4.03,9.12-9.45,9.12-9.5-3.9-9.5-9.12ZM180.09,516.07c0-3.95-2.96-6.85-6.9-6.85s-6.95,2.9-6.95,6.85,2.95,6.85,6.95,6.85,6.9-2.9,6.9-6.85Z"/>
      <path class="st4" d="M186.39,517.3v-10.14h2.55v10.04c0,3.95,1.81,5.73,5.02,5.73s5.04-1.78,5.04-5.73v-10.04h2.47v10.14c0,5.17-2.83,7.9-7.54,7.9s-7.54-2.73-7.54-7.9Z"/>
      <path class="st4" d="M218.62,524.99l-3.85-5.48c-.36.03-.74.05-1.12.05h-4.41v5.43h-2.55v-17.83h6.95c4.64,0,7.44,2.34,7.44,6.22,0,2.75-1.43,4.74-3.92,5.63l4.23,5.99h-2.78ZM218.54,513.37c0-2.55-1.71-4-4.97-4h-4.33v8.03h4.33c3.26,0,4.97-1.48,4.97-4.03Z"/>
      <path class="st4" d="M230.63,516.07c0-5.27,4.02-9.12,9.45-9.12,2.75,0,5.15.94,6.78,2.78l-1.66,1.6c-1.38-1.45-3.06-2.11-5.02-2.11-4.03,0-7.01,2.9-7.01,6.85s2.98,6.85,7.01,6.85c1.96,0,3.64-.69,5.02-2.14l1.66,1.61c-1.63,1.83-4.03,2.8-6.8,2.8-5.4,0-9.43-3.85-9.43-9.12Z"/>
      <path class="st4" d="M262.42,524.99l-3.85-5.48c-.36.03-.74.05-1.12.05h-4.41v5.43h-2.55v-17.83h6.95c4.64,0,7.44,2.34,7.44,6.22,0,2.75-1.43,4.74-3.92,5.63l4.23,5.99h-2.78ZM262.35,513.37c0-2.55-1.71-4-4.97-4h-4.33v8.03h4.33c3.26,0,4.97-1.48,4.97-4.03Z"/>
      <path class="st4" d="M281.97,522.77v2.22h-12.94v-17.83h12.58v2.22h-10.04v5.48h8.94v2.17h-8.94v5.76h10.39Z"/>
      <path class="st4" d="M297.46,520.53h-9.48l-1.96,4.46h-2.62l8.08-17.83h2.52l8.1,17.83h-2.67l-1.96-4.46ZM296.57,518.49l-3.85-8.74-3.85,8.74h7.69Z"/>
      <path class="st4" d="M307.4,509.37h-6.11v-2.22h14.75v2.22h-6.11v15.62h-2.52v-15.62Z"/>
      <path class="st4" d="M317.11,516.07c0-5.22,4.02-9.12,9.5-9.12s9.45,3.87,9.45,9.12-4.03,9.12-9.45,9.12-9.5-3.9-9.5-9.12ZM333.52,516.07c0-3.95-2.96-6.85-6.9-6.85s-6.95,2.9-6.95,6.85,2.95,6.85,6.95,6.85,6.9-2.9,6.9-6.85Z"/>
      <path class="st4" d="M351.89,524.99l-3.85-5.48c-.36.03-.74.05-1.12.05h-4.41v5.43h-2.55v-17.83h6.95c4.64,0,7.44,2.34,7.44,6.22,0,2.75-1.43,4.74-3.92,5.63l4.23,5.99h-2.78ZM351.82,513.37c0-2.55-1.71-4-4.97-4h-4.33v8.03h4.33c3.26,0,4.97-1.48,4.97-4.03Z"/>
      <path class="st4" d="M376.71,520.53h-9.48l-1.96,4.46h-2.62l8.08-17.83h2.52l8.1,17.83h-2.67l-1.96-4.46ZM375.82,518.49l-3.85-8.74-3.85,8.74h7.69Z"/>
      <path class="st4" d="M396.11,515.97h2.45v6.95c-1.78,1.5-4.25,2.27-6.75,2.27-5.48,0-9.5-3.85-9.5-9.12s4.02-9.12,9.55-9.12c2.83,0,5.22.94,6.85,2.75l-1.58,1.58c-1.48-1.43-3.16-2.06-5.17-2.06-4.13,0-7.11,2.88-7.11,6.85s2.98,6.85,7.08,6.85c1.5,0,2.9-.33,4.18-1.15v-5.81Z"/>
      <path class="st4" d="M416.36,522.77v2.22h-12.94v-17.83h12.58v2.22h-10.04v5.48h8.94v2.17h-8.94v5.76h10.39Z"/>
      <path class="st4" d="M435.83,507.16v17.83h-2.09l-10.7-13.3v13.3h-2.55v-17.83h2.09l10.7,13.3v-13.3h2.55Z"/>
      <path class="st4" d="M444.73,509.37h-6.11v-2.22h14.75v2.22h-6.11v15.62h-2.52v-15.62Z"/>
    </g>
  </g>
</svg>