<?xml version="1.0" encoding="UTF-8"?>
<svg id="Layer_1" xmlns="http://www.w3.org/2000/svg" xmlns:xlink="http://www.w3.org/1999/xlink" version="1.1" viewBox="0 0 713.89 234.83">
  <!-- Generator: Adobe Illustrator 29.6.1, SVG Export Plug-In . SVG Version: 2.1.1 Build 9)  -->
  <defs>
    <style>
      .st0 {
        fill: url(#linear-gradient);
      }

      .st1 {
        fill: #fff;
      }

      .st2 {
        fill: #11c14c;
      }
    </style>
    <linearGradient id="linear-gradient" x1="46.12" y1="81.69" x2="394.85" y2="81.69" gradientUnits="userSpaceOnUse">
      <stop offset="0" stop-color="#f97316"/>
      <stop offset=".19" stop-color="#dc2626"/>
      <stop offset=".41" stop-color="#e539b5"/>
      <stop offset=".69" stop-color="#3091f9"/>
      <stop offset="1" stop-color="#11c14c"/>
    </linearGradient>
  </defs>
  <g>
    <path class="st0" d="M46.12,81.69c0-18.97,14.51-32.41,34.28-32.41,11.49,0,20.75,4.19,26.8,11.75l-11.22,10.15c-3.92-4.72-8.73-7.3-14.69-7.3-10.24,0-17.36,7.12-17.36,17.81s7.12,17.81,17.36,17.81c5.97,0,10.77-2.58,14.69-7.3l11.22,10.15c-6.06,7.57-15.32,11.75-26.8,11.75-19.77,0-34.28-13.45-34.28-32.41ZM146.57,63.79v15.23c-1.51-.18-2.58-.27-3.83-.27-6.86,0-11.58,3.47-11.58,11.93v22.17h-16.92v-48.26h16.12v5.79c3.47-4.36,9.08-6.59,16.21-6.59ZM202.13,93h-35.08c1.43,4.9,5.61,7.75,11.84,7.75,4.72,0,7.84-1.34,11.13-4.19l8.9,9.26c-4.63,5.17-11.4,7.84-20.57,7.84-17.19,0-28.32-10.6-28.32-25.02s11.31-24.84,26.54-24.84c14.25,0,25.82,9.08,25.82,25.02,0,1.25-.18,2.85-.27,4.19ZM166.78,84.1h19.77c-.89-5.08-4.63-8.28-9.88-8.28s-8.91,3.21-9.88,8.28ZM254.14,86.06v26.8h-15.76v-6.23c-2.4,4.63-7.21,7.03-14.25,7.03-11.58,0-17.99-6.5-17.99-14.87,0-8.9,6.5-14.43,21.46-14.43h9.62c-.27-4.9-3.56-7.66-10.24-7.66-4.63,0-9.8,1.6-13.09,4.19l-5.7-11.49c5.52-3.65,13.71-5.61,21.28-5.61,15.67,0,24.67,6.95,24.67,22.26ZM237.22,97.37v-4.19h-7.3c-5.43,0-7.39,1.96-7.39,4.9s2.31,4.9,6.32,4.9c3.74,0,7.03-1.78,8.37-5.61ZM298.13,110.9c-2.94,1.87-7.3,2.76-11.75,2.76-12.38,0-19.59-6.05-19.59-18.43v-16.21h-7.03v-12.64h7.03v-12.56h16.92v12.56h11.04v12.64h-11.04v16.03c0,3.56,2.05,5.52,5.08,5.52,1.87,0,3.74-.53,5.16-1.51l4.19,11.84ZM300.19,88.64c0-14.51,11.49-24.84,27.25-24.84s27.25,10.33,27.25,24.84-11.31,25.02-27.25,25.02-27.25-10.42-27.25-25.02ZM337.59,88.64c0-7.3-4.36-11.4-10.15-11.4s-10.15,4.1-10.15,11.4,4.45,11.58,10.15,11.58,10.15-4.19,10.15-11.58ZM394.85,63.79v15.23c-1.51-.18-2.58-.27-3.83-.27-6.86,0-11.58,3.47-11.58,11.93v22.17h-16.92v-48.26h16.12v5.79c3.47-4.36,9.08-6.59,16.21-6.59Z"/>
    <g>
      <path class="st1" d="M469.13,136.9c-.38,0-.76-.05-1.13-.16-2.15-.63-3.39-2.88-2.76-5.03,6.11-21.02,10.32-37.49,12.52-48.95,1.51-7.88,1.85-12.27,1.83-14.66-1.25,1.26-3.14,3.45-5.91,7.24-3.92,5.37-8.51,12.47-12.95,19.33-5.36,8.28-10.9,16.84-15.66,23.04-4.01,5.23-8.59,10.61-13.26,10.61-.79,0-1.59-.16-2.39-.49-6.65-2.83-4.73-13.95-.46-35.01,1.37-6.76,3.49-17.22,3.63-22.42-1.78,1.7-4.83,5.17-9.72,12.22-7.47,10.79-17.57,27.55-30.02,49.81-1.09,1.96-3.57,2.65-5.52,1.56-1.96-1.09-2.65-3.57-1.56-5.52,14.09-25.18,25.22-43.41,33.09-54.2,7.1-9.73,12.54-15.32,17.74-13.06,6.22,2.69,4.49,12.69.32,33.23-1.23,6.08-2.51,12.36-3.2,17.47-.47,3.49-.57,5.71-.52,7.09,1.33-1.21,3.52-3.58,6.93-8.21,4.22-5.74,9.08-13.25,13.79-20.52,5.09-7.87,10.36-16.01,14.78-21.82,5.45-7.17,10.04-11.56,14.69-9.65,5.77,2.37,4.61,12.33,3.07,21.48-1.99,11.84-6.51,29.9-13.42,53.69-.52,1.77-2.14,2.93-3.9,2.93Z"/>
      <path class="st1" d="M532.67,136.9c-.14,0-.27,0-.41-.02-2.23-.22-3.86-2.21-3.63-4.44l4.19-41.61c-9.31,11.31-16.87,19.59-22.53,24.68-5.13,4.61-11.02,8.94-15.81,6.15-3.69-2.16-5.04-7.64-4.13-16.76,1.21-12.11,7.28-32.73,18.39-36.52,10.14-3.47,19.29,1.45,24.86,8.58.48-.6.96-1.21,1.44-1.82,1.12-1.42,3.03-1.92,4.71-1.25,1.67.68,2.7,2.37,2.52,4.17l-5.56,55.2c-.21,2.09-1.97,3.65-4.03,3.65ZM515.48,75.34c-1.29,0-2.67.21-4.12.71-3.29,1.13-7.18,7.22-9.9,15.53-3.47,10.62-3.7,19.56-2.87,22.55,2.43-1.07,9.84-6.25,29.7-30.61-1.54-2.33-6.08-8.18-12.83-8.18Z"/>
      <path class="st1" d="M597.4,88.53h-19.95l4.89-31.32c.35-2.21-1.17-4.29-3.38-4.64-2.22-.35-4.29,1.17-4.64,3.38l-5.09,32.57h-17.91c-1.19,0-2.15,1.33-2.15,2.97s.96,2.97,2.15,2.97h16.98l-5.9,37.73c-.35,2.21,1.17,4.29,3.38,4.64.21.03.42.05.63.05,1.96,0,3.69-1.43,4-3.43l6.09-38.98h20.87c1.19,0,2.15-1.33,2.15-2.97s-.96-2.97-2.15-2.97Z"/>
      <path class="st1" d="M634.33,136.9c-2.16,0-4.32-.23-6.45-.71-12.63-2.82-22.63-13.9-24.32-26.95-.98-7.58.9-15.76,5.15-22.44,4.61-7.24,11.38-11.85,19.06-12.99,7.87-1.17,17.15,1.38,23.11,6.34,3.39,2.83,5.25,6.09,5.37,9.45.17,4.79-3.1,9.18-9.99,13.43-6.86,4.24-17.41,8.47-32.18,12.91,3.19,6.1,8.96,10.86,15.57,12.33,12.6,2.81,26.14-6.25,30.16-20.2.62-2.15,2.87-3.4,5.02-2.77,2.15.62,3.39,2.87,2.77,5.02-2.56,8.87-8.13,16.41-15.67,21.24-5.5,3.52-11.58,5.34-17.61,5.34ZM631.71,81.64c-.92,0-1.84.06-2.74.2-5.32.79-10.08,4.1-13.41,9.32-3.25,5.1-4.69,11.3-3.95,17.03,0,0,0,0,0,.01,35.73-10.74,36.55-17.57,36.53-18.33-.03-.73-.68-2.03-2.45-3.5-3.05-2.54-8.53-4.74-13.98-4.74Z"/>
    </g>
  </g>
  <g>
    <path class="st2" d="M155.03,175.06c0-1.64,1.29-2.85,2.85-2.85s2.85,1.22,2.85,2.85-1.33,2.93-2.85,2.93-2.85-1.25-2.85-2.93Z"/>
    <path class="st2" d="M556.14,175.06c0-1.64,1.29-2.85,2.85-2.85s2.85,1.22,2.85,2.85-1.33,2.93-2.85,2.93-2.85-1.25-2.85-2.93Z"/>
  </g>
  <g>
    <path class="st1" d="M181.32,177.77v7.53h-3.08v-7.59l-8.65-14.19h3.33l6.97,11.48,7-11.48h3.08l-8.65,14.25Z"/>
    <path class="st1" d="M190.41,174.4c0-6.38,4.92-11.14,11.61-11.14s11.55,4.73,11.55,11.14-4.92,11.14-11.55,11.14-11.61-4.76-11.61-11.14ZM210.46,174.4c0-4.82-3.61-8.37-8.43-8.37s-8.5,3.55-8.5,8.37,3.61,8.37,8.5,8.37,8.43-3.55,8.43-8.37Z"/>
    <path class="st1" d="M218.15,175.9v-12.39h3.11v12.26c0,4.82,2.21,7,6.13,7s6.16-2.18,6.16-7v-12.26h3.02v12.39c0,6.32-3.45,9.65-9.21,9.65s-9.21-3.33-9.21-9.65Z"/>
    <path class="st1" d="M257.53,185.3l-4.7-6.69c-.44.03-.9.06-1.37.06h-5.38v6.63h-3.11v-21.79h8.5c5.66,0,9.09,2.86,9.09,7.59,0,3.36-1.74,5.79-4.79,6.88l5.17,7.31h-3.39ZM257.43,171.11c0-3.11-2.09-4.89-6.07-4.89h-5.29v9.8h5.29c3.98,0,6.07-1.81,6.07-4.92Z"/>
    <path class="st1" d="M272.19,174.4c0-6.44,4.92-11.14,11.55-11.14,3.36,0,6.29,1.15,8.28,3.39l-2.02,1.96c-1.68-1.77-3.73-2.58-6.13-2.58-4.92,0-8.56,3.55-8.56,8.37s3.64,8.37,8.56,8.37c2.4,0,4.45-.84,6.13-2.61l2.02,1.96c-1.99,2.24-4.92,3.42-8.31,3.42-6.6,0-11.51-4.7-11.51-11.14Z"/>
    <path class="st1" d="M311.04,185.3l-4.7-6.69c-.44.03-.9.06-1.37.06h-5.38v6.63h-3.11v-21.79h8.5c5.66,0,9.09,2.86,9.09,7.59,0,3.36-1.74,5.79-4.79,6.88l5.17,7.31h-3.39ZM310.95,171.11c0-3.11-2.09-4.89-6.07-4.89h-5.29v9.8h5.29c3.98,0,6.07-1.81,6.07-4.92Z"/>
    <path class="st1" d="M334.92,182.59v2.71h-15.81v-21.79h15.37v2.71h-12.26v6.69h10.92v2.65h-10.92v7.03h12.7Z"/>
    <path class="st1" d="M353.85,179.85h-11.58l-2.4,5.45h-3.21l9.87-21.79h3.08l9.9,21.79h-3.27l-2.4-5.45ZM352.76,177.36l-4.7-10.68-4.7,10.68h9.4Z"/>
    <path class="st1" d="M365.99,166.22h-7.47v-2.71h18.02v2.71h-7.47v19.08h-3.08v-19.08Z"/>
    <path class="st1" d="M377.85,174.4c0-6.38,4.92-11.14,11.61-11.14s11.55,4.73,11.55,11.14-4.92,11.14-11.55,11.14-11.61-4.76-11.61-11.14ZM397.9,174.4c0-4.82-3.61-8.37-8.43-8.37s-8.5,3.55-8.5,8.37,3.61,8.37,8.5,8.37,8.43-3.55,8.43-8.37Z"/>
    <path class="st1" d="M420.34,185.3l-4.7-6.69c-.44.03-.9.06-1.37.06h-5.38v6.63h-3.11v-21.79h8.5c5.66,0,9.09,2.86,9.09,7.59,0,3.36-1.74,5.79-4.79,6.88l5.17,7.31h-3.39ZM420.25,171.11c0-3.11-2.09-4.89-6.07-4.89h-5.29v9.8h5.29c3.98,0,6.07-1.81,6.07-4.92Z"/>
    <path class="st1" d="M450.66,179.85h-11.58l-2.4,5.45h-3.21l9.87-21.79h3.08l9.9,21.79h-3.27l-2.4-5.45ZM449.57,177.36l-4.7-10.68-4.7,10.68h9.4Z"/>
    <path class="st1" d="M474.35,174.28h2.99v8.5c-2.18,1.84-5.2,2.77-8.25,2.77-6.69,0-11.61-4.7-11.61-11.14s4.92-11.14,11.67-11.14c3.45,0,6.38,1.15,8.37,3.36l-1.93,1.93c-1.81-1.74-3.86-2.52-6.32-2.52-5.04,0-8.68,3.52-8.68,8.37s3.64,8.37,8.65,8.37c1.84,0,3.55-.4,5.1-1.4v-7.1Z"/>
    <path class="st1" d="M499.1,182.59v2.71h-15.81v-21.79h15.37v2.71h-12.26v6.69h10.92v2.65h-10.92v7.03h12.7Z"/>
    <path class="st1" d="M522.89,163.51v21.79h-2.55l-13.07-16.25v16.25h-3.11v-21.79h2.55l13.07,16.25v-16.25h3.11Z"/>
    <path class="st1" d="M533.75,166.22h-7.47v-2.71h18.02v2.71h-7.47v19.08h-3.08v-19.08Z"/>
  </g>
</svg>